# xmcd
#
# Track frame offsets:
#	150
#	28735
#	63235
#	72170
#	96750
#	111835
#	134300
#
# Disc length: 2173 seconds
#
# Revision: 0
# Processed by: cddbd v1.5.2PL0 Copyright (c) Steve Scherf et al.
# Submitted via: EasyCDDAExtractor 9.0.0.1
#
DISCID=5c087b07
DTITLE=Ozzy Osbourne - Atlanta 18-05-96 Disc 2
DYEAR=1996
DGENRE=Hard Rock
TTITLE0=Mr Crowley
TTITLE1=War Pigs
TTITLE2=Ozzy Talks
TTITLE3=Crazy Train
TTITLE4=Encore Cheer
TTITLE5=Mama I'm Coming Home
TTITLE6=Bark At The Moon
EXTD=
EXTT0=
EXTT1=
EXTT2=
EXTT3=
EXTT4=
EXTT5=
EXTT6=
PLAYORDER=
